<mxfile host="app.diagrams.net" modified="2022-03-02T13:45:47.362Z" agent="5.0 (X11)" etag="1tp03c99nvp43IU4ahTo" version="16.6.4" type="github">
  <diagram id="xEOYKPZGPERgUVMko6sJ" name="Page-1">
    <mxGraphModel dx="2062" dy="1152" grid="1" gridSize="10" guides="1" tooltips="1" connect="1" arrows="1" fold="1" page="1" pageScale="1" pageWidth="850" pageHeight="1100" math="0" shadow="0">
      <root>
        <mxCell id="0" />
        <mxCell id="1" parent="0" />
        <mxCell id="WdV7XWirTiDJZ8Mzh9TP-16" value="Dataset" style="whiteSpace=wrap;html=1;aspect=fixed;fontFamily=Helvetica;fontSize=14;fontColor=#FFFFFF;fillColor=#10739E;gradientColor=none;strokeColor=default;rounded=1;shadow=1;fontStyle=1;" vertex="1" parent="1">
          <mxGeometry x="50" y="150" width="80" height="80" as="geometry" />
        </mxCell>
        <mxCell id="WdV7XWirTiDJZ8Mzh9TP-17" value="Dataset" style="whiteSpace=wrap;html=1;aspect=fixed;fontFamily=Helvetica;fontSize=14;fontColor=#FFFFFF;fillColor=#10739E;gradientColor=none;strokeColor=default;rounded=1;shadow=1;fontStyle=1;" vertex="1" parent="1">
          <mxGeometry x="60" y="160" width="80" height="80" as="geometry" />
        </mxCell>
        <mxCell id="WdV7XWirTiDJZ8Mzh9TP-18" value="Dataset" style="whiteSpace=wrap;html=1;aspect=fixed;fontFamily=Helvetica;fontSize=14;fontColor=#FFFFFF;fillColor=#10739E;gradientColor=none;strokeColor=default;rounded=1;shadow=1;fontStyle=1;" vertex="1" parent="1">
          <mxGeometry x="70" y="170" width="80" height="80" as="geometry" />
        </mxCell>
        <mxCell id="WdV7XWirTiDJZ8Mzh9TP-25" value="" style="edgeStyle=orthogonalEdgeStyle;rounded=0;orthogonalLoop=1;jettySize=auto;html=1;fontFamily=Helvetica;fontSize=12;fontColor=default;" edge="1" parent="1" source="WdV7XWirTiDJZ8Mzh9TP-19" target="WdV7XWirTiDJZ8Mzh9TP-21">
          <mxGeometry relative="1" as="geometry">
            <Array as="points">
              <mxPoint x="220" y="220" />
              <mxPoint x="220" y="220" />
            </Array>
          </mxGeometry>
        </mxCell>
        <mxCell id="WdV7XWirTiDJZ8Mzh9TP-19" value="Dataset" style="whiteSpace=wrap;html=1;aspect=fixed;fontFamily=Helvetica;fontSize=14;fontColor=#FFFFFF;fillColor=#10739E;gradientColor=none;strokeColor=default;rounded=1;shadow=1;fontStyle=1;" vertex="1" parent="1">
          <mxGeometry x="80" y="180" width="80" height="80" as="geometry" />
        </mxCell>
        <mxCell id="WdV7XWirTiDJZ8Mzh9TP-21" value="" style="whiteSpace=wrap;html=1;aspect=fixed;fontFamily=Helvetica;fontSize=12;fontColor=default;strokeColor=default;fillColor=none;gradientColor=none;" vertex="1" parent="1">
          <mxGeometry x="240" y="40" width="370" height="370" as="geometry" />
        </mxCell>
        <mxCell id="WdV7XWirTiDJZ8Mzh9TP-22" value="GPU instances" style="whiteSpace=wrap;html=1;aspect=fixed;fontFamily=Helvetica;fontSize=12;fontColor=default;strokeColor=default;fillColor=none;gradientColor=none;rounded=1;" vertex="1" parent="1">
          <mxGeometry x="330" y="220" width="180" height="180" as="geometry" />
        </mxCell>
        <mxCell id="WdV7XWirTiDJZ8Mzh9TP-26" value="" style="edgeStyle=orthogonalEdgeStyle;rounded=0;orthogonalLoop=1;jettySize=auto;html=1;fontFamily=Helvetica;fontSize=12;fontColor=default;" edge="1" parent="1" source="WdV7XWirTiDJZ8Mzh9TP-23" target="WdV7XWirTiDJZ8Mzh9TP-22">
          <mxGeometry relative="1" as="geometry" />
        </mxCell>
        <mxCell id="WdV7XWirTiDJZ8Mzh9TP-23" value="Main control" style="whiteSpace=wrap;html=1;aspect=fixed;fontFamily=Helvetica;fontSize=12;fontColor=default;strokeColor=default;fillColor=none;gradientColor=none;rounded=1;" vertex="1" parent="1">
          <mxGeometry x="385" y="80" width="70" height="70" as="geometry" />
        </mxCell>
        <mxCell id="WdV7XWirTiDJZ8Mzh9TP-24" value="Kubernetes cluster" style="text;html=1;strokeColor=none;fillColor=none;align=center;verticalAlign=middle;whiteSpace=wrap;rounded=0;fontFamily=Helvetica;fontSize=12;fontColor=default;" vertex="1" parent="1">
          <mxGeometry x="335" y="10" width="170" height="30" as="geometry" />
        </mxCell>
        <mxCell id="WdV7XWirTiDJZ8Mzh9TP-27" value="" style="whiteSpace=wrap;html=1;aspect=fixed;fontFamily=Helvetica;fontSize=12;fontColor=default;strokeColor=default;fillColor=none;gradientColor=none;rounded=1;" vertex="1" parent="1">
          <mxGeometry x="385" y="315" width="50" height="50" as="geometry" />
        </mxCell>
        <mxCell id="WdV7XWirTiDJZ8Mzh9TP-32" value="" style="whiteSpace=wrap;html=1;aspect=fixed;fontFamily=Helvetica;fontSize=12;fontColor=default;strokeColor=default;fillColor=none;gradientColor=none;rounded=1;" vertex="1" parent="1">
          <mxGeometry x="395" y="325" width="50" height="50" as="geometry" />
        </mxCell>
        <mxCell id="WdV7XWirTiDJZ8Mzh9TP-33" value="" style="whiteSpace=wrap;html=1;aspect=fixed;fontFamily=Helvetica;fontSize=12;fontColor=default;strokeColor=default;fillColor=none;gradientColor=none;rounded=1;" vertex="1" parent="1">
          <mxGeometry x="405" y="335" width="50" height="50" as="geometry" />
        </mxCell>
        <mxCell id="WdV7XWirTiDJZ8Mzh9TP-34" value="" style="whiteSpace=wrap;html=1;aspect=fixed;fontFamily=Helvetica;fontSize=12;fontColor=default;strokeColor=default;fillColor=none;gradientColor=none;rounded=1;" vertex="1" parent="1">
          <mxGeometry x="415" y="345" width="50" height="50" as="geometry" />
        </mxCell>
        <mxCell id="WdV7XWirTiDJZ8Mzh9TP-37" value="Jobs" style="text;html=1;strokeColor=none;fillColor=none;align=center;verticalAlign=middle;whiteSpace=wrap;rounded=0;fontFamily=Helvetica;fontSize=12;fontColor=default;" vertex="1" parent="1">
          <mxGeometry x="335" y="340" width="60" height="30" as="geometry" />
        </mxCell>
        <mxCell id="WdV7XWirTiDJZ8Mzh9TP-38" value="" style="group" vertex="1" connectable="0" parent="1">
          <mxGeometry x="350" y="450" width="120" height="530" as="geometry" />
        </mxCell>
        <mxCell id="WdV7XWirTiDJZ8Mzh9TP-1" value="Raw file decoding" style="rounded=1;fillColor=#10739E;strokeColor=none;shadow=1;gradientColor=none;fontStyle=1;fontColor=#FFFFFF;fontSize=14;flipV=1;flipH=0;" vertex="1" parent="WdV7XWirTiDJZ8Mzh9TP-38">
          <mxGeometry width="119.99999999999999" height="46.962025316455694" as="geometry" />
        </mxCell>
        <mxCell id="WdV7XWirTiDJZ8Mzh9TP-2" value="Doppler centroid&#xa;estimation" style="rounded=1;fillColor=#10739E;strokeColor=none;shadow=1;gradientColor=none;fontStyle=1;fontColor=#FFFFFF;fontSize=14;flipV=1;flipH=0;" vertex="1" parent="WdV7XWirTiDJZ8Mzh9TP-38">
          <mxGeometry y="80.50632911392405" width="119.99999999999999" height="46.962025316455694" as="geometry" />
        </mxCell>
        <mxCell id="WdV7XWirTiDJZ8Mzh9TP-3" value="Range&#xa;compression" style="rounded=1;fillColor=#10739E;strokeColor=none;shadow=1;gradientColor=none;fontStyle=1;fontColor=#FFFFFF;fontSize=14;flipV=1;flipH=0;" vertex="1" parent="WdV7XWirTiDJZ8Mzh9TP-38">
          <mxGeometry y="161.0126582278481" width="119.99999999999999" height="46.962025316455694" as="geometry" />
        </mxCell>
        <mxCell id="WdV7XWirTiDJZ8Mzh9TP-4" value="Autofocus" style="rounded=1;fillColor=#10739E;strokeColor=none;shadow=1;gradientColor=none;fontStyle=1;fontColor=#FFFFFF;fontSize=14;flipV=1;flipH=0;" vertex="1" parent="WdV7XWirTiDJZ8Mzh9TP-38">
          <mxGeometry y="241.51898734177217" width="119.99999999999999" height="46.962025316455694" as="geometry" />
        </mxCell>
        <mxCell id="WdV7XWirTiDJZ8Mzh9TP-5" value="Azimuth&#xa;compression" style="rounded=1;fillColor=#10739E;strokeColor=none;shadow=1;gradientColor=none;fontStyle=1;fontColor=#FFFFFF;fontSize=14;flipV=1;flipH=0;" vertex="1" parent="WdV7XWirTiDJZ8Mzh9TP-38">
          <mxGeometry y="322.0253164556962" width="119.99999999999999" height="46.962025316455694" as="geometry" />
        </mxCell>
        <mxCell id="WdV7XWirTiDJZ8Mzh9TP-6" value="Calibration" style="rounded=1;fillColor=#10739E;strokeColor=none;shadow=1;gradientColor=none;fontStyle=1;fontColor=#FFFFFF;fontSize=14;flipV=1;flipH=0;" vertex="1" parent="WdV7XWirTiDJZ8Mzh9TP-38">
          <mxGeometry y="402.53164556962025" width="119.99999999999999" height="46.962025316455694" as="geometry" />
        </mxCell>
        <mxCell id="WdV7XWirTiDJZ8Mzh9TP-7" value="" style="edgeStyle=elbowEdgeStyle;elbow=vertical;strokeWidth=4;endArrow=block;endFill=1;fontStyle=1;strokeColor=#23445D;" edge="1" parent="WdV7XWirTiDJZ8Mzh9TP-38" source="WdV7XWirTiDJZ8Mzh9TP-1" target="WdV7XWirTiDJZ8Mzh9TP-2">
          <mxGeometry x="-522.0000000000002" y="-23.145569620253166" width="81.81818181818184" height="67.08860759493672" as="geometry">
            <mxPoint x="-531.0000000000001" y="103.65189873417722" as="sourcePoint" />
            <mxPoint x="-449.1818181818181" y="170.74050632911394" as="targetPoint" />
          </mxGeometry>
        </mxCell>
        <mxCell id="WdV7XWirTiDJZ8Mzh9TP-8" value="" style="edgeStyle=elbowEdgeStyle;elbow=vertical;strokeWidth=4;endArrow=block;endFill=1;fontStyle=1;strokeColor=#23445D;" edge="1" parent="WdV7XWirTiDJZ8Mzh9TP-38" source="WdV7XWirTiDJZ8Mzh9TP-3" target="WdV7XWirTiDJZ8Mzh9TP-4">
          <mxGeometry x="-391.09090909090907" y="-100.63291139240506" width="81.81818181818184" height="67.08860759493672" as="geometry">
            <mxPoint x="-407.4545454545456" y="536.7088607594937" as="sourcePoint" />
            <mxPoint x="-325.6363636363637" y="603.7974683544304" as="targetPoint" />
          </mxGeometry>
        </mxCell>
        <mxCell id="WdV7XWirTiDJZ8Mzh9TP-9" value="" style="edgeStyle=elbowEdgeStyle;elbow=vertical;strokeWidth=4;endArrow=block;endFill=1;fontStyle=1;strokeColor=#23445D;" edge="1" parent="WdV7XWirTiDJZ8Mzh9TP-38" source="WdV7XWirTiDJZ8Mzh9TP-4" target="WdV7XWirTiDJZ8Mzh9TP-5">
          <mxGeometry x="-391.09090909090907" y="-93.92405063291139" width="81.81818181818184" height="67.08860759493672" as="geometry">
            <mxPoint x="-407.4545454545456" y="650.7594936708861" as="sourcePoint" />
            <mxPoint x="-325.6363636363637" y="717.8481012658228" as="targetPoint" />
          </mxGeometry>
        </mxCell>
        <mxCell id="WdV7XWirTiDJZ8Mzh9TP-10" value="" style="edgeStyle=elbowEdgeStyle;elbow=vertical;strokeWidth=4;endArrow=block;endFill=1;fontStyle=1;strokeColor=#23445D;" edge="1" parent="WdV7XWirTiDJZ8Mzh9TP-38" source="WdV7XWirTiDJZ8Mzh9TP-5" target="WdV7XWirTiDJZ8Mzh9TP-6">
          <mxGeometry x="-391.09090909090907" y="-26.835443037974684" width="81.81818181818184" height="67.08860759493672" as="geometry">
            <mxPoint x="-407.4545454545456" y="825.1898734177217" as="sourcePoint" />
            <mxPoint x="-325.6363636363637" y="892.2784810126583" as="targetPoint" />
          </mxGeometry>
        </mxCell>
        <mxCell id="WdV7XWirTiDJZ8Mzh9TP-11" value="" style="edgeStyle=elbowEdgeStyle;elbow=vertical;strokeWidth=4;endArrow=block;endFill=1;fontStyle=1;strokeColor=#23445D;exitX=0.5;exitY=1;exitDx=0;exitDy=0;" edge="1" parent="WdV7XWirTiDJZ8Mzh9TP-38" source="WdV7XWirTiDJZ8Mzh9TP-2" target="WdV7XWirTiDJZ8Mzh9TP-3">
          <mxGeometry x="-481.0909090909094" y="-167.72151898734182" width="81.81818181818184" height="67.08860759493672" as="geometry">
            <mxPoint x="98.18181818181814" y="167.72151898734177" as="sourcePoint" />
            <mxPoint x="171.81818181818193" y="194.55696202531647" as="targetPoint" />
          </mxGeometry>
        </mxCell>
        <mxCell id="WdV7XWirTiDJZ8Mzh9TP-12" value="Processed file" style="rounded=1;fillColor=#10739E;strokeColor=none;shadow=1;gradientColor=none;fontStyle=1;fontColor=#FFFFFF;fontSize=14;flipV=1;flipH=0;" vertex="1" parent="WdV7XWirTiDJZ8Mzh9TP-38">
          <mxGeometry y="483.03797468354435" width="119.99999999999999" height="46.962025316455694" as="geometry" />
        </mxCell>
        <mxCell id="WdV7XWirTiDJZ8Mzh9TP-13" value="" style="edgeStyle=orthogonalEdgeStyle;rounded=1;orthogonalLoop=1;jettySize=auto;html=1;endArrow=block;strokeColor=#23445D;strokeWidth=4;endFill=1;fontStyle=1;" edge="1" parent="WdV7XWirTiDJZ8Mzh9TP-38" source="WdV7XWirTiDJZ8Mzh9TP-6" target="WdV7XWirTiDJZ8Mzh9TP-12">
          <mxGeometry relative="1" as="geometry" />
        </mxCell>
        <mxCell id="WdV7XWirTiDJZ8Mzh9TP-39" value="" style="group" vertex="1" connectable="0" parent="1">
          <mxGeometry x="360" y="460" width="120" height="530" as="geometry" />
        </mxCell>
        <mxCell id="WdV7XWirTiDJZ8Mzh9TP-40" value="Raw file decoding" style="rounded=1;fillColor=#10739E;strokeColor=none;shadow=1;gradientColor=none;fontStyle=1;fontColor=#FFFFFF;fontSize=14;flipV=1;flipH=0;" vertex="1" parent="WdV7XWirTiDJZ8Mzh9TP-39">
          <mxGeometry width="119.99999999999999" height="46.962025316455694" as="geometry" />
        </mxCell>
        <mxCell id="WdV7XWirTiDJZ8Mzh9TP-41" value="Doppler centroid&#xa;estimation" style="rounded=1;fillColor=#10739E;strokeColor=none;shadow=1;gradientColor=none;fontStyle=1;fontColor=#FFFFFF;fontSize=14;flipV=1;flipH=0;" vertex="1" parent="WdV7XWirTiDJZ8Mzh9TP-39">
          <mxGeometry y="80.50632911392405" width="119.99999999999999" height="46.962025316455694" as="geometry" />
        </mxCell>
        <mxCell id="WdV7XWirTiDJZ8Mzh9TP-42" value="Range&#xa;compression" style="rounded=1;fillColor=#10739E;strokeColor=none;shadow=1;gradientColor=none;fontStyle=1;fontColor=#FFFFFF;fontSize=14;flipV=1;flipH=0;" vertex="1" parent="WdV7XWirTiDJZ8Mzh9TP-39">
          <mxGeometry y="161.0126582278481" width="119.99999999999999" height="46.962025316455694" as="geometry" />
        </mxCell>
        <mxCell id="WdV7XWirTiDJZ8Mzh9TP-43" value="Autofocus" style="rounded=1;fillColor=#10739E;strokeColor=none;shadow=1;gradientColor=none;fontStyle=1;fontColor=#FFFFFF;fontSize=14;flipV=1;flipH=0;" vertex="1" parent="WdV7XWirTiDJZ8Mzh9TP-39">
          <mxGeometry y="241.51898734177217" width="119.99999999999999" height="46.962025316455694" as="geometry" />
        </mxCell>
        <mxCell id="WdV7XWirTiDJZ8Mzh9TP-44" value="Azimuth&#xa;compression" style="rounded=1;fillColor=#10739E;strokeColor=none;shadow=1;gradientColor=none;fontStyle=1;fontColor=#FFFFFF;fontSize=14;flipV=1;flipH=0;" vertex="1" parent="WdV7XWirTiDJZ8Mzh9TP-39">
          <mxGeometry y="322.0253164556962" width="119.99999999999999" height="46.962025316455694" as="geometry" />
        </mxCell>
        <mxCell id="WdV7XWirTiDJZ8Mzh9TP-45" value="Calibration" style="rounded=1;fillColor=#10739E;strokeColor=none;shadow=1;gradientColor=none;fontStyle=1;fontColor=#FFFFFF;fontSize=14;flipV=1;flipH=0;" vertex="1" parent="WdV7XWirTiDJZ8Mzh9TP-39">
          <mxGeometry y="402.53164556962025" width="119.99999999999999" height="46.962025316455694" as="geometry" />
        </mxCell>
        <mxCell id="WdV7XWirTiDJZ8Mzh9TP-46" value="" style="edgeStyle=elbowEdgeStyle;elbow=vertical;strokeWidth=4;endArrow=block;endFill=1;fontStyle=1;strokeColor=#23445D;" edge="1" parent="WdV7XWirTiDJZ8Mzh9TP-39" source="WdV7XWirTiDJZ8Mzh9TP-40" target="WdV7XWirTiDJZ8Mzh9TP-41">
          <mxGeometry x="-522.0000000000002" y="-23.145569620253166" width="81.81818181818184" height="67.08860759493672" as="geometry">
            <mxPoint x="-531.0000000000001" y="103.65189873417722" as="sourcePoint" />
            <mxPoint x="-449.1818181818181" y="170.74050632911394" as="targetPoint" />
          </mxGeometry>
        </mxCell>
        <mxCell id="WdV7XWirTiDJZ8Mzh9TP-47" value="" style="edgeStyle=elbowEdgeStyle;elbow=vertical;strokeWidth=4;endArrow=block;endFill=1;fontStyle=1;strokeColor=#23445D;" edge="1" parent="WdV7XWirTiDJZ8Mzh9TP-39" source="WdV7XWirTiDJZ8Mzh9TP-42" target="WdV7XWirTiDJZ8Mzh9TP-43">
          <mxGeometry x="-391.09090909090907" y="-100.63291139240506" width="81.81818181818184" height="67.08860759493672" as="geometry">
            <mxPoint x="-407.4545454545456" y="536.7088607594937" as="sourcePoint" />
            <mxPoint x="-325.6363636363637" y="603.7974683544304" as="targetPoint" />
          </mxGeometry>
        </mxCell>
        <mxCell id="WdV7XWirTiDJZ8Mzh9TP-48" value="" style="edgeStyle=elbowEdgeStyle;elbow=vertical;strokeWidth=4;endArrow=block;endFill=1;fontStyle=1;strokeColor=#23445D;" edge="1" parent="WdV7XWirTiDJZ8Mzh9TP-39" source="WdV7XWirTiDJZ8Mzh9TP-43" target="WdV7XWirTiDJZ8Mzh9TP-44">
          <mxGeometry x="-391.09090909090907" y="-93.92405063291139" width="81.81818181818184" height="67.08860759493672" as="geometry">
            <mxPoint x="-407.4545454545456" y="650.7594936708861" as="sourcePoint" />
            <mxPoint x="-325.6363636363637" y="717.8481012658228" as="targetPoint" />
          </mxGeometry>
        </mxCell>
        <mxCell id="WdV7XWirTiDJZ8Mzh9TP-49" value="" style="edgeStyle=elbowEdgeStyle;elbow=vertical;strokeWidth=4;endArrow=block;endFill=1;fontStyle=1;strokeColor=#23445D;" edge="1" parent="WdV7XWirTiDJZ8Mzh9TP-39" source="WdV7XWirTiDJZ8Mzh9TP-44" target="WdV7XWirTiDJZ8Mzh9TP-45">
          <mxGeometry x="-391.09090909090907" y="-26.835443037974684" width="81.81818181818184" height="67.08860759493672" as="geometry">
            <mxPoint x="-407.4545454545456" y="825.1898734177217" as="sourcePoint" />
            <mxPoint x="-325.6363636363637" y="892.2784810126583" as="targetPoint" />
          </mxGeometry>
        </mxCell>
        <mxCell id="WdV7XWirTiDJZ8Mzh9TP-50" value="" style="edgeStyle=elbowEdgeStyle;elbow=vertical;strokeWidth=4;endArrow=block;endFill=1;fontStyle=1;strokeColor=#23445D;exitX=0.5;exitY=1;exitDx=0;exitDy=0;" edge="1" parent="WdV7XWirTiDJZ8Mzh9TP-39" source="WdV7XWirTiDJZ8Mzh9TP-41" target="WdV7XWirTiDJZ8Mzh9TP-42">
          <mxGeometry x="-481.0909090909094" y="-167.72151898734182" width="81.81818181818184" height="67.08860759493672" as="geometry">
            <mxPoint x="98.18181818181814" y="167.72151898734177" as="sourcePoint" />
            <mxPoint x="171.81818181818193" y="194.55696202531647" as="targetPoint" />
          </mxGeometry>
        </mxCell>
        <mxCell id="WdV7XWirTiDJZ8Mzh9TP-51" value="Processed file" style="rounded=1;fillColor=#10739E;strokeColor=none;shadow=1;gradientColor=none;fontStyle=1;fontColor=#FFFFFF;fontSize=14;flipV=1;flipH=0;" vertex="1" parent="WdV7XWirTiDJZ8Mzh9TP-39">
          <mxGeometry y="483.03797468354435" width="119.99999999999999" height="46.962025316455694" as="geometry" />
        </mxCell>
        <mxCell id="WdV7XWirTiDJZ8Mzh9TP-52" value="" style="edgeStyle=orthogonalEdgeStyle;rounded=1;orthogonalLoop=1;jettySize=auto;html=1;endArrow=block;strokeColor=#23445D;strokeWidth=4;endFill=1;fontStyle=1;" edge="1" parent="WdV7XWirTiDJZ8Mzh9TP-39" source="WdV7XWirTiDJZ8Mzh9TP-45" target="WdV7XWirTiDJZ8Mzh9TP-51">
          <mxGeometry relative="1" as="geometry" />
        </mxCell>
        <mxCell id="WdV7XWirTiDJZ8Mzh9TP-53" value="" style="group" vertex="1" connectable="0" parent="1">
          <mxGeometry x="370" y="470" width="120" height="530" as="geometry" />
        </mxCell>
        <mxCell id="WdV7XWirTiDJZ8Mzh9TP-54" value="Raw file decoding" style="rounded=1;fillColor=#10739E;strokeColor=none;shadow=1;gradientColor=none;fontStyle=1;fontColor=#FFFFFF;fontSize=14;flipV=1;flipH=0;" vertex="1" parent="WdV7XWirTiDJZ8Mzh9TP-53">
          <mxGeometry width="119.99999999999999" height="46.962025316455694" as="geometry" />
        </mxCell>
        <mxCell id="WdV7XWirTiDJZ8Mzh9TP-55" value="Doppler centroid&#xa;estimation" style="rounded=1;fillColor=#10739E;strokeColor=none;shadow=1;gradientColor=none;fontStyle=1;fontColor=#FFFFFF;fontSize=14;flipV=1;flipH=0;" vertex="1" parent="WdV7XWirTiDJZ8Mzh9TP-53">
          <mxGeometry y="80.50632911392405" width="119.99999999999999" height="46.962025316455694" as="geometry" />
        </mxCell>
        <mxCell id="WdV7XWirTiDJZ8Mzh9TP-56" value="Range&#xa;compression" style="rounded=1;fillColor=#10739E;strokeColor=none;shadow=1;gradientColor=none;fontStyle=1;fontColor=#FFFFFF;fontSize=14;flipV=1;flipH=0;" vertex="1" parent="WdV7XWirTiDJZ8Mzh9TP-53">
          <mxGeometry y="161.0126582278481" width="119.99999999999999" height="46.962025316455694" as="geometry" />
        </mxCell>
        <mxCell id="WdV7XWirTiDJZ8Mzh9TP-57" value="Autofocus" style="rounded=1;fillColor=#10739E;strokeColor=none;shadow=1;gradientColor=none;fontStyle=1;fontColor=#FFFFFF;fontSize=14;flipV=1;flipH=0;" vertex="1" parent="WdV7XWirTiDJZ8Mzh9TP-53">
          <mxGeometry y="241.51898734177217" width="119.99999999999999" height="46.962025316455694" as="geometry" />
        </mxCell>
        <mxCell id="WdV7XWirTiDJZ8Mzh9TP-58" value="Azimuth&#xa;compression" style="rounded=1;fillColor=#10739E;strokeColor=none;shadow=1;gradientColor=none;fontStyle=1;fontColor=#FFFFFF;fontSize=14;flipV=1;flipH=0;" vertex="1" parent="WdV7XWirTiDJZ8Mzh9TP-53">
          <mxGeometry y="322.0253164556962" width="119.99999999999999" height="46.962025316455694" as="geometry" />
        </mxCell>
        <mxCell id="WdV7XWirTiDJZ8Mzh9TP-59" value="Calibration" style="rounded=1;fillColor=#10739E;strokeColor=none;shadow=1;gradientColor=none;fontStyle=1;fontColor=#FFFFFF;fontSize=14;flipV=1;flipH=0;" vertex="1" parent="WdV7XWirTiDJZ8Mzh9TP-53">
          <mxGeometry y="402.53164556962025" width="119.99999999999999" height="46.962025316455694" as="geometry" />
        </mxCell>
        <mxCell id="WdV7XWirTiDJZ8Mzh9TP-60" value="" style="edgeStyle=elbowEdgeStyle;elbow=vertical;strokeWidth=4;endArrow=block;endFill=1;fontStyle=1;strokeColor=#23445D;" edge="1" parent="WdV7XWirTiDJZ8Mzh9TP-53" source="WdV7XWirTiDJZ8Mzh9TP-54" target="WdV7XWirTiDJZ8Mzh9TP-55">
          <mxGeometry x="-522.0000000000002" y="-23.145569620253166" width="81.81818181818184" height="67.08860759493672" as="geometry">
            <mxPoint x="-531.0000000000001" y="103.65189873417722" as="sourcePoint" />
            <mxPoint x="-449.1818181818181" y="170.74050632911394" as="targetPoint" />
          </mxGeometry>
        </mxCell>
        <mxCell id="WdV7XWirTiDJZ8Mzh9TP-61" value="" style="edgeStyle=elbowEdgeStyle;elbow=vertical;strokeWidth=4;endArrow=block;endFill=1;fontStyle=1;strokeColor=#23445D;" edge="1" parent="WdV7XWirTiDJZ8Mzh9TP-53" source="WdV7XWirTiDJZ8Mzh9TP-56" target="WdV7XWirTiDJZ8Mzh9TP-57">
          <mxGeometry x="-391.09090909090907" y="-100.63291139240506" width="81.81818181818184" height="67.08860759493672" as="geometry">
            <mxPoint x="-407.4545454545456" y="536.7088607594937" as="sourcePoint" />
            <mxPoint x="-325.6363636363637" y="603.7974683544304" as="targetPoint" />
          </mxGeometry>
        </mxCell>
        <mxCell id="WdV7XWirTiDJZ8Mzh9TP-62" value="" style="edgeStyle=elbowEdgeStyle;elbow=vertical;strokeWidth=4;endArrow=block;endFill=1;fontStyle=1;strokeColor=#23445D;" edge="1" parent="WdV7XWirTiDJZ8Mzh9TP-53" source="WdV7XWirTiDJZ8Mzh9TP-57" target="WdV7XWirTiDJZ8Mzh9TP-58">
          <mxGeometry x="-391.09090909090907" y="-93.92405063291139" width="81.81818181818184" height="67.08860759493672" as="geometry">
            <mxPoint x="-407.4545454545456" y="650.7594936708861" as="sourcePoint" />
            <mxPoint x="-325.6363636363637" y="717.8481012658228" as="targetPoint" />
          </mxGeometry>
        </mxCell>
        <mxCell id="WdV7XWirTiDJZ8Mzh9TP-63" value="" style="edgeStyle=elbowEdgeStyle;elbow=vertical;strokeWidth=4;endArrow=block;endFill=1;fontStyle=1;strokeColor=#23445D;" edge="1" parent="WdV7XWirTiDJZ8Mzh9TP-53" source="WdV7XWirTiDJZ8Mzh9TP-58" target="WdV7XWirTiDJZ8Mzh9TP-59">
          <mxGeometry x="-391.09090909090907" y="-26.835443037974684" width="81.81818181818184" height="67.08860759493672" as="geometry">
            <mxPoint x="-407.4545454545456" y="825.1898734177217" as="sourcePoint" />
            <mxPoint x="-325.6363636363637" y="892.2784810126583" as="targetPoint" />
          </mxGeometry>
        </mxCell>
        <mxCell id="WdV7XWirTiDJZ8Mzh9TP-64" value="" style="edgeStyle=elbowEdgeStyle;elbow=vertical;strokeWidth=4;endArrow=block;endFill=1;fontStyle=1;strokeColor=#23445D;exitX=0.5;exitY=1;exitDx=0;exitDy=0;" edge="1" parent="WdV7XWirTiDJZ8Mzh9TP-53" source="WdV7XWirTiDJZ8Mzh9TP-55" target="WdV7XWirTiDJZ8Mzh9TP-56">
          <mxGeometry x="-481.0909090909094" y="-167.72151898734182" width="81.81818181818184" height="67.08860759493672" as="geometry">
            <mxPoint x="98.18181818181814" y="167.72151898734177" as="sourcePoint" />
            <mxPoint x="171.81818181818193" y="194.55696202531647" as="targetPoint" />
          </mxGeometry>
        </mxCell>
        <mxCell id="WdV7XWirTiDJZ8Mzh9TP-65" value="Processed file" style="rounded=1;fillColor=#10739E;strokeColor=none;shadow=1;gradientColor=none;fontStyle=1;fontColor=#FFFFFF;fontSize=14;flipV=1;flipH=0;" vertex="1" parent="WdV7XWirTiDJZ8Mzh9TP-53">
          <mxGeometry y="483.03797468354435" width="119.99999999999999" height="46.962025316455694" as="geometry" />
        </mxCell>
        <mxCell id="WdV7XWirTiDJZ8Mzh9TP-66" value="" style="edgeStyle=orthogonalEdgeStyle;rounded=1;orthogonalLoop=1;jettySize=auto;html=1;endArrow=block;strokeColor=#23445D;strokeWidth=4;endFill=1;fontStyle=1;" edge="1" parent="WdV7XWirTiDJZ8Mzh9TP-53" source="WdV7XWirTiDJZ8Mzh9TP-59" target="WdV7XWirTiDJZ8Mzh9TP-65">
          <mxGeometry relative="1" as="geometry" />
        </mxCell>
        <mxCell id="WdV7XWirTiDJZ8Mzh9TP-67" value="" style="group" vertex="1" connectable="0" parent="1">
          <mxGeometry x="380" y="480" width="120" height="530" as="geometry" />
        </mxCell>
        <mxCell id="WdV7XWirTiDJZ8Mzh9TP-68" value="Raw file decoding" style="rounded=1;fillColor=#10739E;strokeColor=none;shadow=1;gradientColor=none;fontStyle=1;fontColor=#FFFFFF;fontSize=14;flipV=1;flipH=0;" vertex="1" parent="WdV7XWirTiDJZ8Mzh9TP-67">
          <mxGeometry width="119.99999999999999" height="46.962025316455694" as="geometry" />
        </mxCell>
        <mxCell id="WdV7XWirTiDJZ8Mzh9TP-69" value="Doppler centroid&#xa;estimation" style="rounded=1;fillColor=#10739E;strokeColor=none;shadow=1;gradientColor=none;fontStyle=1;fontColor=#FFFFFF;fontSize=14;flipV=1;flipH=0;" vertex="1" parent="WdV7XWirTiDJZ8Mzh9TP-67">
          <mxGeometry y="80.50632911392405" width="119.99999999999999" height="46.962025316455694" as="geometry" />
        </mxCell>
        <mxCell id="WdV7XWirTiDJZ8Mzh9TP-70" value="Range&#xa;compression" style="rounded=1;fillColor=#10739E;strokeColor=none;shadow=1;gradientColor=none;fontStyle=1;fontColor=#FFFFFF;fontSize=14;flipV=1;flipH=0;" vertex="1" parent="WdV7XWirTiDJZ8Mzh9TP-67">
          <mxGeometry y="161.0126582278481" width="119.99999999999999" height="46.962025316455694" as="geometry" />
        </mxCell>
        <mxCell id="WdV7XWirTiDJZ8Mzh9TP-71" value="Autofocus" style="rounded=1;fillColor=#10739E;strokeColor=none;shadow=1;gradientColor=none;fontStyle=1;fontColor=#FFFFFF;fontSize=14;flipV=1;flipH=0;" vertex="1" parent="WdV7XWirTiDJZ8Mzh9TP-67">
          <mxGeometry y="241.51898734177217" width="119.99999999999999" height="46.962025316455694" as="geometry" />
        </mxCell>
        <mxCell id="WdV7XWirTiDJZ8Mzh9TP-72" value="Azimuth&#xa;compression" style="rounded=1;fillColor=#10739E;strokeColor=none;shadow=1;gradientColor=none;fontStyle=1;fontColor=#FFFFFF;fontSize=14;flipV=1;flipH=0;" vertex="1" parent="WdV7XWirTiDJZ8Mzh9TP-67">
          <mxGeometry y="322.0253164556962" width="119.99999999999999" height="46.962025316455694" as="geometry" />
        </mxCell>
        <mxCell id="WdV7XWirTiDJZ8Mzh9TP-73" value="Calibration" style="rounded=1;fillColor=#10739E;strokeColor=none;shadow=1;gradientColor=none;fontStyle=1;fontColor=#FFFFFF;fontSize=14;flipV=1;flipH=0;" vertex="1" parent="WdV7XWirTiDJZ8Mzh9TP-67">
          <mxGeometry y="402.53164556962025" width="119.99999999999999" height="46.962025316455694" as="geometry" />
        </mxCell>
        <mxCell id="WdV7XWirTiDJZ8Mzh9TP-74" value="" style="edgeStyle=elbowEdgeStyle;elbow=vertical;strokeWidth=4;endArrow=block;endFill=1;fontStyle=1;strokeColor=#23445D;" edge="1" parent="WdV7XWirTiDJZ8Mzh9TP-67" source="WdV7XWirTiDJZ8Mzh9TP-68" target="WdV7XWirTiDJZ8Mzh9TP-69">
          <mxGeometry x="-522.0000000000002" y="-23.145569620253166" width="81.81818181818184" height="67.08860759493672" as="geometry">
            <mxPoint x="-531.0000000000001" y="103.65189873417722" as="sourcePoint" />
            <mxPoint x="-449.1818181818181" y="170.74050632911394" as="targetPoint" />
          </mxGeometry>
        </mxCell>
        <mxCell id="WdV7XWirTiDJZ8Mzh9TP-75" value="" style="edgeStyle=elbowEdgeStyle;elbow=vertical;strokeWidth=4;endArrow=block;endFill=1;fontStyle=1;strokeColor=#23445D;" edge="1" parent="WdV7XWirTiDJZ8Mzh9TP-67" source="WdV7XWirTiDJZ8Mzh9TP-70" target="WdV7XWirTiDJZ8Mzh9TP-71">
          <mxGeometry x="-391.09090909090907" y="-100.63291139240506" width="81.81818181818184" height="67.08860759493672" as="geometry">
            <mxPoint x="-407.4545454545456" y="536.7088607594937" as="sourcePoint" />
            <mxPoint x="-325.6363636363637" y="603.7974683544304" as="targetPoint" />
          </mxGeometry>
        </mxCell>
        <mxCell id="WdV7XWirTiDJZ8Mzh9TP-76" value="" style="edgeStyle=elbowEdgeStyle;elbow=vertical;strokeWidth=4;endArrow=block;endFill=1;fontStyle=1;strokeColor=#23445D;" edge="1" parent="WdV7XWirTiDJZ8Mzh9TP-67" source="WdV7XWirTiDJZ8Mzh9TP-71" target="WdV7XWirTiDJZ8Mzh9TP-72">
          <mxGeometry x="-391.09090909090907" y="-93.92405063291139" width="81.81818181818184" height="67.08860759493672" as="geometry">
            <mxPoint x="-407.4545454545456" y="650.7594936708861" as="sourcePoint" />
            <mxPoint x="-325.6363636363637" y="717.8481012658228" as="targetPoint" />
          </mxGeometry>
        </mxCell>
        <mxCell id="WdV7XWirTiDJZ8Mzh9TP-77" value="" style="edgeStyle=elbowEdgeStyle;elbow=vertical;strokeWidth=4;endArrow=block;endFill=1;fontStyle=1;strokeColor=#23445D;" edge="1" parent="WdV7XWirTiDJZ8Mzh9TP-67" source="WdV7XWirTiDJZ8Mzh9TP-72" target="WdV7XWirTiDJZ8Mzh9TP-73">
          <mxGeometry x="-391.09090909090907" y="-26.835443037974684" width="81.81818181818184" height="67.08860759493672" as="geometry">
            <mxPoint x="-407.4545454545456" y="825.1898734177217" as="sourcePoint" />
            <mxPoint x="-325.6363636363637" y="892.2784810126583" as="targetPoint" />
          </mxGeometry>
        </mxCell>
        <mxCell id="WdV7XWirTiDJZ8Mzh9TP-78" value="" style="edgeStyle=elbowEdgeStyle;elbow=vertical;strokeWidth=4;endArrow=block;endFill=1;fontStyle=1;strokeColor=#23445D;exitX=0.5;exitY=1;exitDx=0;exitDy=0;" edge="1" parent="WdV7XWirTiDJZ8Mzh9TP-67" source="WdV7XWirTiDJZ8Mzh9TP-69" target="WdV7XWirTiDJZ8Mzh9TP-70">
          <mxGeometry x="-481.0909090909094" y="-167.72151898734182" width="81.81818181818184" height="67.08860759493672" as="geometry">
            <mxPoint x="98.18181818181814" y="167.72151898734177" as="sourcePoint" />
            <mxPoint x="171.81818181818193" y="194.55696202531647" as="targetPoint" />
          </mxGeometry>
        </mxCell>
        <mxCell id="WdV7XWirTiDJZ8Mzh9TP-79" value="Processed file" style="rounded=1;fillColor=#10739E;strokeColor=none;shadow=1;gradientColor=none;fontStyle=1;fontColor=#FFFFFF;fontSize=14;flipV=1;flipH=0;" vertex="1" parent="WdV7XWirTiDJZ8Mzh9TP-67">
          <mxGeometry y="483.03797468354435" width="119.99999999999999" height="46.962025316455694" as="geometry" />
        </mxCell>
        <mxCell id="WdV7XWirTiDJZ8Mzh9TP-80" value="" style="edgeStyle=orthogonalEdgeStyle;rounded=1;orthogonalLoop=1;jettySize=auto;html=1;endArrow=block;strokeColor=#23445D;strokeWidth=4;endFill=1;fontStyle=1;" edge="1" parent="WdV7XWirTiDJZ8Mzh9TP-67" source="WdV7XWirTiDJZ8Mzh9TP-73" target="WdV7XWirTiDJZ8Mzh9TP-79">
          <mxGeometry relative="1" as="geometry" />
        </mxCell>
        <mxCell id="WdV7XWirTiDJZ8Mzh9TP-83" value="" style="endArrow=classic;html=1;rounded=0;fontFamily=Helvetica;fontSize=12;fontColor=default;" edge="1" parent="1">
          <mxGeometry width="50" height="50" relative="1" as="geometry">
            <mxPoint x="424" y="410" as="sourcePoint" />
            <mxPoint x="424" y="450" as="targetPoint" />
          </mxGeometry>
        </mxCell>
      </root>
    </mxGraphModel>
  </diagram>
</mxfile>
